<svg id="All_glyphs" data-name="All glyphs" xmlns="http://www.w3.org/2000/svg" viewBox="0 0 90 58" fill="#f0d8d9"><title>mail</title><path d="M-2561.34,140.15l37.5,20.15a9.87,9.87,0,0,0,4.53,1,9.87,9.87,0,0,0,4.53-1l37.5-20.15c2.44-1.31,4.76-5.43.27-5.43h-84.6C-2566.09,134.72-2563.78,138.84-2561.34,140.15Zm85.1,10-38.54,20.15a8.62,8.62,0,0,1-4.53,1,8.62,8.62,0,0,1-4.53-1l-38.53-20.15c-2-1-1.94.18-1.94,1.1v36.68c0,2.09,2.79,4.79,5,4.79h80.08c2.17,0,5-2.7,5-4.79V151.25C-2474.31,150.33-2474.29,149.13-2476.24,150.15Z" transform="translate(2564.31 -134.72)"/></svg>